<svg xmlns="http://www.w3.org/2000/svg" width="163" height="80"><g fill="#363640"><path d="M79.066 47.442v-12.185c0-8.525-6.557-15.459-14.72-15.662l-.366-.005-.048.001v-.001l-.171.003-.162.003c-4.225.092-7.699 1.935-10.063 4.835v-3.6799999999999997h-15.086v3.481h1.16c1.282 0 2.321 1.039 2.321 2.321v20.888c0 1.282-1.039 2.321-2.321 2.321h-2.321v5.802h19.728v-5.802h-1.16c-1.282 0-2.321-1.039-2.321-2.321v-13.925c0-4.486 3.637-8.123 8.123-8.123 3.204 0 5.802 3.637 5.802 8.123v13.926c0 1.282-1.039 2.321-2.321 2.321h-1.16v5.802h19.727v-5.802h-2.321c-1.281 0-2.32-1.039-2.32-2.321z"/><path d="M162.845 20.751h-17.406000000000002v3.481h3.25c1.262 0 1.885 1.008 1.415 2.262l-2.344 5.861-5.968 14.92-6.219-20.728.007.006c-.386-1.282.34-2.321 1.622-2.321h2.434v-3.481h-33.88v3.481h1.273c1.282 0 2.008 1.039 1.622 2.321l.007-.006-5.804 20.894-5.804-20.894.007.006c-.386-1.282.34-2.321 1.622-2.321h2.434v-3.481h-22.046999999999997v3.481h2.208c1.245 0 2.553.981 2.981 2.211l8.736 29.122h12.765l8.736-29.122c.428-1.23 1.736-2.211 2.981-2.211h2.323c1.245 0 2.553.981 2.981 2.211l8.736 29.122 2.984 9.947-1.592 3.979c-1.507 2.81-4.152 4.707-7.422 4.707-1.962 0-3.774-.683-5.235-1.836-.276-.23-.966-.896-1.555-2.208 1.956-.933 3.308-2.928 3.308-5.24 0-3.205-2.598-5.802-5.802-5.802s-5.802 2.598-5.802 5.802c0 8.332 6.754 15.086 15.086 15.086 6.736 0 12.44-4.415 14.378-10.509h.006l.928-2.321 16.249-40.622.003.006c.511-1.282 1.965-2.321 3.247-2.321h2.55l.001-3.482z"/><path d="M18.721 19.591c-10.255 0-18.567 8.313-18.567 18.568 0 10.254 8.313 18.567 18.567 18.567 8.228 0 15.205-5.353 17.641-12.765h-8.336c-1.565 3.449-4.647 5.501-7.872 5.501-2.724 0-5.163-1.546-6.798-4.069l-.232-.468c-1.469-2.431-1.711-5.149-1.711-5.149h25.802999999999997c.046-.533.072-1.072.072-1.618.001-10.254-8.312-18.567-18.567-18.567zm8.978 15.086h-15.940999999999999c0-5.127 3.637-9.284 8.123-9.284 4.486 0 8.123 4.156 8.123 9.284h-.305z"/><path d="M47.551 2.184l-2.092 7.208h-2.596l-2.093-7.193-.061 7.346h-2.26l.336-9.545h3.436l1.985 7.162 1.986-7.162h3.39l.321 9.545h-2.306l-.046-7.361z"/><path d="M60.852 9.545h-2.413l-.703-2.031h-3.543l-.687 2.031h-2.413l3.391-9.545h3.039l3.329 9.545zm-4.871-7.667l-1.268 3.742h2.489l-1.221-3.742z"/><path d="M65.678 9.545h-3.421v-9.545h3.589c3.36 0 5.269 1.863 5.269 4.704-.001 2.932-1.94 4.841-5.437 4.841zm.015-7.605h-1.008v5.666h1.13c1.756 0 2.856-.901 2.856-2.81 0-1.971-.993-2.856-2.978-2.856z"/><path d="M73.039 9.545v-9.545h6.979v1.955h-4.597v1.833h3.696v1.94h-3.696v1.862h4.597v1.955h-6.979z"/><path d="M90.341 9.545h-2.52l-2.55-9.545h2.596l1.283 6.75 1.71-6.75h2.779l1.741 6.75 1.283-6.75h2.489l-2.55 9.545h-2.535l-1.848-6.796-1.878 6.796z"/><path d="M100.893 9.545v-9.545h2.428v9.545h-2.428z"/><path d="M110.529 2.031v7.514h-2.428v-7.514h-3.039v-2.031h8.506v2.031h-3.039z"/><path d="M121.555 9.545v-3.788h-3.833v3.787h-2.428v-9.544h2.428v3.711h3.833v-3.711h2.428v9.545h-2.428z"/></g></svg>