<?xml version="1.0" encoding="utf-8"?>
<!-- Generator: Adobe Illustrator 16.0.4, SVG Export Plug-In . SVG Version: 6.00 Build 0)  -->
<!DOCTYPE svg PUBLIC "-//W3C//DTD SVG 1.1//EN" "http://www.w3.org/Graphics/SVG/1.1/DTD/svg11.dtd">
<svg version="1.1" id="Layer_1" xmlns="http://www.w3.org/2000/svg" xmlns:xlink="http://www.w3.org/1999/xlink" x="0px" y="0px"
	 width="167px" height="184px" viewBox="0 0 167 184" enable-background="new 0 0 167 184" xml:space="preserve">
<g>
	<circle fill="#E5E4F2" cx="83.021" cy="95.491" r="83.5"/>
	<path fill="#4E4E5C" d="M47.208,155.339c0,0,1.107-126.159,2.213-131.139c1.106-4.98,2.568-15.959,27.113-18.26
		c17.706-1.66,23.239,8.3,23.793,15.493c0.323,4.202,4.979,121.179,4.979,121.179l9.406-2.213c0,0-3.873-120.626-5.533-125.053
		c-1.659-4.427-7.167-20.33-43.712-13.833c-24.9,4.426-26.006,17.153-27.666,24.346c-0.906,3.926-2.213,128.925-2.213,128.925
		L47.208,155.339z"/>
	<polygon fill="#4E4E5C" points="39.501,145.378 110.759,129.939 111.946,123.245 38.908,138.091 	"/>
	<path fill="#928D96" d="M64.956,1.608c-24.399,4.51-25.507,17.108-27.155,24.251c-0.906,3.926-2.213,128.925-2.213,128.925
		l0.578,0.029l6.062-5.008c0,0-1.66-113.433,1.106-125.053C45.84,14.229,48.8,7.337,64.956,1.608z"/>
	<g>
		<path fill="#4E4E5C" d="M102.753,101.665c2.214-4.979,12.174-7.746,18.813-5.533c6.64,2.214,18.26,28.773,8.3,47.033
			c0,0-11.62,9.406-19.92,3.873C109.946,147.038,88.522,133.685,102.753,101.665z"/>
	</g>
	<polygon fill="#928D96" points="48.868,138.185 106.967,126.013 106.727,123.753 47.262,135.84 	"/>
	<path fill="#4E4E5C" d="M99.844,125.116c0,0,2.797-0.625,3.672,1.688l1.484-0.25v-3.688L99.844,125.116z"/>
	<path fill="#4E4E5C" d="M111.191,136.501l45.036,15.299c3.231,1.324,5.445,4.646,1.39,6.492l-73.155,25.514
		c-6.821,0.859-10.022-0.895-14.375-3.713l-35.311-26.42L111.191,136.501z"/>
	<path fill="#928D96" d="M104.253,18.273c0,0-3.378-16.502-30.97-11.961l0,0c1.037-0.142,2.119-0.267,3.251-0.373
		c17.706-1.66,23.239,8.3,23.793,15.493c0.323,4.202,4.479,116.466,4.479,116.466l5.342,1.979L104.253,18.273z"/>
	<polygon fill="#4E4E5C" points="45.548,73.524 108.592,63.748 108.196,36.724 45.671,44.855 	"/>
	<g>
		<path fill="#4E4E5C" d="M19.541,119.372c2.214-4.98,12.173-7.746,18.813-5.533c6.64,2.213,18.26,28.773,8.3,47.033
			c0,0-11.62,9.406-19.92,3.873C26.734,164.745,5.311,151.392,19.541,119.372z"/>
	</g>
</g>
</svg>
